# xmcd
#
# Track frame offsets:
#	150
#	16016
#	34781
#	56842
#	74272
#	93573
#	111458
#	129984
#	146989
#	159895
#	181460
#	202275
#	226773
#	244461
#	266810
#	284436
#	296844
#	317194
#	338788
#
# Disc length: 4733 seconds
#
# Revision: 1
# Processed by: cddbd v1.5.1PL0 Copyright (c) Steve Scherf et al.
# Submitted via: audiograbber 1.83.01
#
DISCID=2f127b13
DTITLE=Gordon Haskell - Shadows On The Wall (+Bonus)
DYEAR=2002
DGENRE=
TTITLE0=Sunshine Days
TTITLE1=Whole Wide World
TTITLE2=Shadows On The Wall
TTITLE3=Look Out
TTITLE4=Roll Away
TTITLE5=Long Lost Friends
TTITLE6=If You Could Read My Mind
TTITLE7=Country Gold
TTITLE8=Walking In A Wilderness
TTITLE9=The Other Side
TTITLE10=California On His Mind
TTITLE11=Shadows On The Wall
TTITLE12=How Wonderful You Are
TTITLE13=All The Time In The World
TTITLE14=Voodoo Dance
TTITLE15=Freeway To Her Dreams
TTITLE16=Sunshine In The Night
TTITLE17=Feeling Loose
TTITLE18=A Little Help From You
EXTD=
EXTT0=
EXTT1=
EXTT2=
EXTT3=
EXTT4=
EXTT5=
EXTT6=
EXTT7=
EXTT8=
EXTT9=
EXTT10=
EXTT11=
EXTT12=
EXTT13=
EXTT14=
EXTT15=
EXTT16=
EXTT17=
EXTT18=
PLAYORDER=
